<svg width="42" height="42" viewBox="0 0 42 42" fill="none" xmlns="http://www.w3.org/2000/svg">
<path d="M0 0H21C32.598 0 42 9.40202 42 21C42 32.598 32.598 42 21 42H0V0Z" fill="#32A961"/>
<path d="M25.0781 19.9844C25.5096 19.9844 25.8594 19.6346 25.8594 19.2031C25.8594 18.7717 25.5096 18.4219 25.0781 18.4219C24.6467 18.4219 24.2969 18.7717 24.2969 19.2031C24.2969 19.6346 24.6467 19.9844 25.0781 19.9844Z" fill="white"/>
<path d="M26.875 12.5625H25.8594V11.7812C25.8594 11.3498 25.5096 11 25.0781 11C24.6466 11 24.2969 11.3498 24.2969 11.7812V12.5625H20.7422V11.7812C20.7422 11.3498 20.3924 11 19.9609 11C19.5295 11 19.1797 11.3498 19.1797 11.7812V12.5625H15.6641V11.7812C15.6641 11.3498 15.3143 11 14.8828 11C14.4513 11 14.1016 11.3498 14.1016 11.7812V12.5625H13.125C11.4019 12.5625 10 13.9644 10 15.6875V27.875C10 29.5981 11.4019 31 13.125 31H19.1016C19.533 31 19.8828 30.6502 19.8828 30.2188C19.8828 29.7873 19.533 29.4375 19.1016 29.4375H13.125C12.2634 29.4375 11.5625 28.7366 11.5625 27.875V15.6875C11.5625 14.8259 12.2634 14.125 13.125 14.125H14.1016V14.9062C14.1016 15.3377 14.4513 15.6875 14.8828 15.6875C15.3143 15.6875 15.6641 15.3377 15.6641 14.9062V14.125H19.1797V14.9062C19.1797 15.3377 19.5295 15.6875 19.9609 15.6875C20.3924 15.6875 20.7422 15.3377 20.7422 14.9062V14.125H24.2969V14.9062C24.2969 15.3377 24.6466 15.6875 25.0781 15.6875C25.5096 15.6875 25.8594 15.3377 25.8594 14.9062V14.125H26.875C27.7366 14.125 28.4375 14.8259 28.4375 15.6875V20.1406C28.4375 20.5721 28.7873 20.9219 29.2188 20.9219C29.6502 20.9219 30 20.5721 30 20.1406V15.6875C30 13.9644 28.5981 12.5625 26.875 12.5625Z" fill="white"/>
<path d="M25.2734 21.5469C22.6672 21.5469 20.5469 23.6672 20.5469 26.2734C20.5469 28.8797 22.6672 31 25.2734 31C27.8797 31 30 28.8797 30 26.2734C30 23.6672 27.8797 21.5469 25.2734 21.5469ZM25.2734 29.4375C23.5288 29.4375 22.1094 28.0181 22.1094 26.2734C22.1094 24.5287 23.5288 23.1094 25.2734 23.1094C27.0181 23.1094 28.4375 24.5287 28.4375 26.2734C28.4375 28.0181 27.0181 29.4375 25.2734 29.4375Z" fill="white"/>
<path d="M26.4062 25.4922H26.0547V24.6719C26.0547 24.2404 25.7049 23.8906 25.2734 23.8906C24.842 23.8906 24.4922 24.2404 24.4922 24.6719V26.2734C24.4922 26.7049 24.842 27.0547 25.2734 27.0547H26.4062C26.8377 27.0547 27.1875 26.7049 27.1875 26.2734C27.1875 25.842 26.8377 25.4922 26.4062 25.4922Z" fill="white"/>
<path d="M21.6797 19.9844C22.1112 19.9844 22.4609 19.6346 22.4609 19.2031C22.4609 18.7717 22.1112 18.4219 21.6797 18.4219C21.2482 18.4219 20.8984 18.7717 20.8984 19.2031C20.8984 19.6346 21.2482 19.9844 21.6797 19.9844Z" fill="white"/>
<path d="M18.2812 23.3828C18.7127 23.3828 19.0625 23.033 19.0625 22.6016C19.0625 22.1701 18.7127 21.8203 18.2812 21.8203C17.8498 21.8203 17.5 22.1701 17.5 22.6016C17.5 23.033 17.8498 23.3828 18.2812 23.3828Z" fill="white"/>
<path d="M14.8828 19.9844C15.3143 19.9844 15.6641 19.6346 15.6641 19.2031C15.6641 18.7717 15.3143 18.4219 14.8828 18.4219C14.4513 18.4219 14.1016 18.7717 14.1016 19.2031C14.1016 19.6346 14.4513 19.9844 14.8828 19.9844Z" fill="white"/>
<path d="M14.8828 23.3828C15.3143 23.3828 15.6641 23.033 15.6641 22.6016C15.6641 22.1701 15.3143 21.8203 14.8828 21.8203C14.4513 21.8203 14.1016 22.1701 14.1016 22.6016C14.1016 23.033 14.4513 23.3828 14.8828 23.3828Z" fill="white"/>
<path d="M14.8828 26.7812C15.3143 26.7812 15.6641 26.4315 15.6641 26C15.6641 25.5685 15.3143 25.2188 14.8828 25.2188C14.4513 25.2188 14.1016 25.5685 14.1016 26C14.1016 26.4315 14.4513 26.7812 14.8828 26.7812Z" fill="white"/>
<path d="M18.2812 26.7812C18.7127 26.7812 19.0625 26.4315 19.0625 26C19.0625 25.5685 18.7127 25.2188 18.2812 25.2188C17.8498 25.2188 17.5 25.5685 17.5 26C17.5 26.4315 17.8498 26.7812 18.2812 26.7812Z" fill="white"/>
<path d="M18.2812 19.9844C18.7127 19.9844 19.0625 19.6346 19.0625 19.2031C19.0625 18.7717 18.7127 18.4219 18.2812 18.4219C17.8498 18.4219 17.5 18.7717 17.5 19.2031C17.5 19.6346 17.8498 19.9844 18.2812 19.9844Z" fill="white"/>
</svg>
