<svg width="26" height="32" viewBox="0 0 26 32" fill="none" xmlns="http://www.w3.org/2000/svg">
<path d="M0 0H10C18.8366 0 26 7.16344 26 16C26 24.8366 18.8366 32 10 32H0V0Z" fill="#32A961"/>
<path d="M15.0469 15.3906C15.3058 15.3906 15.5156 15.1808 15.5156 14.9219C15.5156 14.663 15.3058 14.4531 15.0469 14.4531C14.788 14.4531 14.5781 14.663 14.5781 14.9219C14.5781 15.1808 14.788 15.3906 15.0469 15.3906Z" fill="white"/>
<path d="M16.125 10.9375H15.5156V10.4688C15.5156 10.2099 15.3058 10 15.0469 10C14.788 10 14.5781 10.2099 14.5781 10.4688V10.9375H12.4453V10.4688C12.4453 10.2099 12.2355 10 11.9766 10C11.7177 10 11.5078 10.2099 11.5078 10.4688V10.9375H9.39844V10.4688C9.39844 10.2099 9.18858 10 8.92969 10C8.6708 10 8.46094 10.2099 8.46094 10.4688V10.9375H7.875C6.84113 10.9375 6 11.7786 6 12.8125V20.125C6 21.1589 6.84113 22 7.875 22H11.4609C11.7198 22 11.9297 21.7901 11.9297 21.5312C11.9297 21.2724 11.7198 21.0625 11.4609 21.0625H7.875C7.35806 21.0625 6.9375 20.6419 6.9375 20.125V12.8125C6.9375 12.2956 7.35806 11.875 7.875 11.875H8.46094V12.3438C8.46094 12.6026 8.6708 12.8125 8.92969 12.8125C9.18858 12.8125 9.39844 12.6026 9.39844 12.3438V11.875H11.5078V12.3438C11.5078 12.6026 11.7177 12.8125 11.9766 12.8125C12.2355 12.8125 12.4453 12.6026 12.4453 12.3438V11.875H14.5781V12.3438C14.5781 12.6026 14.788 12.8125 15.0469 12.8125C15.3058 12.8125 15.5156 12.6026 15.5156 12.3438V11.875H16.125C16.6419 11.875 17.0625 12.2956 17.0625 12.8125V15.4844C17.0625 15.7433 17.2724 15.9531 17.5312 15.9531C17.7901 15.9531 18 15.7433 18 15.4844V12.8125C18 11.7786 17.1589 10.9375 16.125 10.9375Z" fill="white"/>
<path d="M15.1641 16.3281C13.6003 16.3281 12.3281 17.6003 12.3281 19.1641C12.3281 20.7278 13.6003 22 15.1641 22C16.7278 22 18 20.7278 18 19.1641C18 17.6003 16.7278 16.3281 15.1641 16.3281ZM15.1641 21.0625C14.1173 21.0625 13.2656 20.2109 13.2656 19.1641C13.2656 18.1172 14.1173 17.2656 15.1641 17.2656C16.2109 17.2656 17.0625 18.1172 17.0625 19.1641C17.0625 20.2109 16.2109 21.0625 15.1641 21.0625Z" fill="white"/>
<path d="M15.8438 18.6953H15.6328V18.2031C15.6328 17.9442 15.423 17.7344 15.1641 17.7344C14.9052 17.7344 14.6953 17.9442 14.6953 18.2031V19.1641C14.6953 19.423 14.9052 19.6328 15.1641 19.6328H15.8438C16.1026 19.6328 16.3125 19.423 16.3125 19.1641C16.3125 18.9052 16.1026 18.6953 15.8438 18.6953Z" fill="white"/>
<path d="M13.0078 15.3906C13.2667 15.3906 13.4766 15.1808 13.4766 14.9219C13.4766 14.663 13.2667 14.4531 13.0078 14.4531C12.7489 14.4531 12.5391 14.663 12.5391 14.9219C12.5391 15.1808 12.7489 15.3906 13.0078 15.3906Z" fill="white"/>
<path d="M10.9688 17.4297C11.2276 17.4297 11.4375 17.2198 11.4375 16.9609C11.4375 16.7021 11.2276 16.4922 10.9688 16.4922C10.7099 16.4922 10.5 16.7021 10.5 16.9609C10.5 17.2198 10.7099 17.4297 10.9688 17.4297Z" fill="white"/>
<path d="M8.92969 15.3906C9.18857 15.3906 9.39844 15.1808 9.39844 14.9219C9.39844 14.663 9.18857 14.4531 8.92969 14.4531C8.6708 14.4531 8.46094 14.663 8.46094 14.9219C8.46094 15.1808 8.6708 15.3906 8.92969 15.3906Z" fill="white"/>
<path d="M8.92969 17.4297C9.18857 17.4297 9.39844 17.2198 9.39844 16.9609C9.39844 16.7021 9.18857 16.4922 8.92969 16.4922C8.6708 16.4922 8.46094 16.7021 8.46094 16.9609C8.46094 17.2198 8.6708 17.4297 8.92969 17.4297Z" fill="white"/>
<path d="M8.92969 19.4688C9.18857 19.4688 9.39844 19.2589 9.39844 19C9.39844 18.7411 9.18857 18.5312 8.92969 18.5312C8.6708 18.5312 8.46094 18.7411 8.46094 19C8.46094 19.2589 8.6708 19.4688 8.92969 19.4688Z" fill="white"/>
<path d="M10.9688 19.4688C11.2276 19.4688 11.4375 19.2589 11.4375 19C11.4375 18.7411 11.2276 18.5312 10.9688 18.5312C10.7099 18.5312 10.5 18.7411 10.5 19C10.5 19.2589 10.7099 19.4688 10.9688 19.4688Z" fill="white"/>
<path d="M10.9688 15.3906C11.2276 15.3906 11.4375 15.1808 11.4375 14.9219C11.4375 14.663 11.2276 14.4531 10.9688 14.4531C10.7099 14.4531 10.5 14.663 10.5 14.9219C10.5 15.1808 10.7099 15.3906 10.9688 15.3906Z" fill="white"/>
</svg>

