<svg width="201" height="52" viewBox="0 0 201 52" fill="none" xmlns="http://www.w3.org/2000/svg">
<rect y="5.44534" width="111" height="46.1786" rx="23.0893" fill="#32A961"/>
<path d="M22.08 20.3381C26.24 20.3381 29.1333 22.0581 30.76 25.4981C31.24 26.4847 31.4933 27.6447 31.52 28.9781C31.5733 30.3114 31.4133 31.4581 31.04 32.4181H18.48C18.48 33.2714 18.8267 33.9514 19.52 34.4581C20.24 34.9381 21.1067 35.1781 22.12 35.1781C24.12 35.1781 25.9733 34.8314 27.68 34.1381L30.92 37.6981C28.0667 39.8047 25.1333 40.8581 22.12 40.8581C19.16 40.8581 16.7333 39.8847 14.84 37.9381C12.9733 35.9647 12.04 33.5247 12.04 30.6181C12.04 27.6847 12.9467 25.2447 14.76 23.2981C16.5733 21.3247 19.0133 20.3381 22.08 20.3381ZM22.08 26.0581C21.12 26.0581 20.32 26.3247 19.68 26.8581C19.0667 27.3647 18.7467 27.9114 18.72 28.4981H25.4C25.4 28.0981 25.24 27.7114 24.92 27.3381C24.3067 26.4847 23.36 26.0581 22.08 26.0581ZM49.7984 26.3781H47.2784C45.9184 26.3781 44.8384 26.8181 44.0384 27.6981C43.2651 28.5514 42.8784 29.7647 42.8784 31.3381V40.6181H36.6384V20.6181H40.7584L41.4784 24.3781C43.1318 21.6847 45.5584 20.3381 48.7584 20.3381H49.7984V26.3781ZM62.4556 20.3381C64.7756 20.3381 66.749 21.0714 68.3756 22.5381L68.7356 20.6181H72.8156V38.0181C72.8156 40.9514 71.8823 43.3914 70.0156 45.3381C68.149 47.2847 65.6823 48.2581 62.6156 48.2581C59.1223 48.2581 56.1356 47.2047 53.6556 45.0981L57.1356 41.3381C59.189 42.1647 61.0156 42.5781 62.6156 42.5781C63.7356 42.5781 64.6556 42.3114 65.3756 41.7781C66.1223 41.2714 66.4956 40.5114 66.4956 39.4981V39.0581C65.2956 39.7514 63.949 40.0981 62.4556 40.0981C59.6823 40.0981 57.389 39.1381 55.5756 37.2181C53.7623 35.2714 52.8556 32.9514 52.8556 30.2581C52.8556 27.5381 53.7623 25.2047 55.5756 23.2581C57.389 21.3114 59.6823 20.3381 62.4556 20.3381ZM65.8556 27.4981C65.0556 26.7514 64.1356 26.3781 63.0956 26.3781C62.0556 26.3781 61.1223 26.7514 60.2956 27.4981C59.4956 28.2181 59.0956 29.1381 59.0956 30.2581C59.0956 31.3781 59.4956 32.2981 60.2956 33.0181C61.1223 33.7114 62.0556 34.0581 63.0956 34.0581C64.1356 34.0581 65.0556 33.7114 65.8556 33.0181C66.6823 32.2981 67.0956 31.3781 67.0956 30.2581C67.0956 29.1381 66.6823 28.2181 65.8556 27.4981ZM88.3738 20.3381C91.2271 20.3381 93.6538 21.3514 95.6538 23.3781C97.6538 25.3781 98.6538 27.7914 98.6538 30.6181C98.6538 33.4447 97.6538 35.8581 95.6538 37.8581C93.6538 39.8581 91.2271 40.8581 88.3738 40.8581C85.5204 40.8581 83.0938 39.8581 81.0938 37.8581C79.1204 35.8581 78.1338 33.4447 78.1338 30.6181C78.1338 27.7647 79.1338 25.3381 81.1338 23.3381C83.1338 21.3381 85.5471 20.3381 88.3738 20.3381ZM91.1738 27.5381C90.3738 26.7647 89.4404 26.3781 88.3738 26.3781C87.3071 26.3781 86.3738 26.7647 85.5738 27.5381C84.7738 28.3114 84.3738 29.3381 84.3738 30.6181C84.3738 31.8981 84.7738 32.9247 85.5738 33.6981C86.3738 34.4447 87.3071 34.8181 88.3738 34.8181C89.4404 34.8181 90.3738 34.4447 91.1738 33.6981C91.9738 32.9247 92.3738 31.8981 92.3738 30.6181C92.3738 29.3381 91.9738 28.3114 91.1738 27.5381Z" fill="white"/>
<path d="M131.464 22.3792H130.288C127.432 22.3792 125.332 23.2332 123.988 24.9412C122.644 26.6492 121.972 28.9172 121.972 31.7452V40.7332H118.906V19.7332H121.09L121.384 25.4032C122.168 23.4432 123.386 21.9592 125.038 20.9512C126.69 19.9432 128.65 19.4392 130.918 19.4392H131.464V22.3792ZM146.279 19.4392C148.547 19.4392 150.493 19.9852 152.117 21.0772C153.741 22.1692 154.945 23.6672 155.729 25.5712C156.065 26.3832 156.261 27.3212 156.317 28.3852C156.401 29.4492 156.331 30.3032 156.107 30.9472H138.719C138.719 33.1592 139.447 34.9232 140.903 36.2392C142.387 37.5272 144.291 38.1852 146.615 38.2132C149.275 38.2132 151.697 37.4572 153.881 35.9452L155.519 37.7932C152.803 39.9212 149.835 40.9852 146.615 40.9852C143.367 40.9572 140.721 39.9492 138.677 37.9612C136.633 35.9732 135.611 33.3972 135.611 30.2332C135.611 27.1812 136.591 24.6192 138.551 22.5472C140.539 20.4752 143.115 19.4392 146.279 19.4392ZM146.279 22.2532C144.207 22.2532 142.471 22.8972 141.071 24.1852C139.699 25.4732 138.957 27.0412 138.845 28.8892H153.335C153.391 28.1612 153.237 27.3632 152.873 26.4952C152.341 25.2072 151.501 24.1852 150.353 23.4292C149.205 22.6452 147.847 22.2532 146.279 22.2532ZM173.38 19.4392C176.236 19.4392 178.462 20.3212 180.058 22.0852C181.682 23.8492 182.494 26.2992 182.494 29.4352V40.7332H179.47V29.5612C179.47 27.1532 178.882 25.3612 177.706 24.1852C176.558 22.9812 174.976 22.3792 172.96 22.3792C170.748 22.3792 168.984 23.1072 167.668 24.5632C166.38 26.0192 165.736 28.0772 165.736 30.7372V40.7332H162.67V19.7332H164.854L165.022 24.5212C165.806 22.8132 166.954 21.5392 168.466 20.6992C169.978 19.8592 171.616 19.4392 173.38 19.4392ZM194.981 22.6312V40.7332H191.915V22.6312H188.849V19.7332H191.915V12.6772H194.981V19.7332H198.047V22.6312H194.981Z" fill="white"/>
</svg>
