<svg width="42" height="50" viewBox="0 0 42 50" fill="none" xmlns="http://www.w3.org/2000/svg">
<circle cx="21" cy="28" r="21" fill="#32A961"/>
<path d="M21.08 17.72C25.24 17.72 28.1333 19.44 29.76 22.88C30.24 23.8666 30.4933 25.0266 30.52 26.36C30.5733 27.6933 30.4133 28.84 30.04 29.8H17.48C17.48 30.6533 17.8267 31.3333 18.52 31.84C19.24 32.32 20.1067 32.56 21.12 32.56C23.12 32.56 24.9733 32.2133 26.68 31.52L29.92 35.08C27.0667 37.1866 24.1333 38.24 21.12 38.24C18.16 38.24 15.7333 37.2666 13.84 35.32C11.9733 33.3466 11.04 30.9066 11.04 28C11.04 25.0666 11.9467 22.6266 13.76 20.68C15.5733 18.7066 18.0133 17.72 21.08 17.72ZM21.08 23.44C20.12 23.44 19.32 23.7066 18.68 24.24C18.0667 24.7466 17.7467 25.2933 17.72 25.88H24.4C24.4 25.48 24.24 25.0933 23.92 24.72C23.3067 23.8666 22.36 23.44 21.08 23.44Z" fill="white"/>
</svg>

