<svg width="30" height="30" viewBox="0 0 30 30" fill="none" xmlns="http://www.w3.org/2000/svg">
<circle cx="15" cy="15" r="15" fill="#32A961"/>
<path d="M15.2422 7C18.6573 7 21.0325 8.34113 22.3679 11.0234C22.7619 11.7927 22.9699 12.6972 22.9918 13.7368C23.0356 14.7765 22.9042 15.6706 22.5977 16.4191H12.2868C12.2868 17.0845 12.5714 17.6147 13.1406 18.0097C13.7317 18.384 14.4431 18.5712 15.275 18.5712C16.9169 18.5712 18.4383 18.3008 19.8394 17.7602L22.4992 20.5361C20.1568 22.1787 17.7488 23 15.275 23C12.845 23 10.8529 22.2411 9.29861 20.7232C7.7662 19.1845 7 17.282 7 15.0156C7 12.7284 7.74431 10.8259 9.23294 9.30799C10.7216 7.76933 12.7246 7 15.2422 7ZM15.2422 11.46C14.4541 11.46 13.7973 11.668 13.2719 12.0838C12.7684 12.4789 12.5057 12.9051 12.4838 13.3626H17.9677C17.9677 13.0507 17.8363 12.7492 17.5736 12.4581C17.0701 11.7927 16.293 11.46 15.2422 11.46Z" fill="white"/>
</svg>