<svg width="20" height="20" viewBox="0 0 20 14" fill="none" xmlns="http://www.w3.org/2000/svg">
<path fill-rule="evenodd" clip-rule="evenodd" d="M17.732 -0.00799942H2.28201C1.02901 -0.00799942 0.0100098 0.932001 0.0100098 2.088V11.892C0.0100098 13.048 1.02901 13.988 2.28201 13.988H17.732C18.985 13.988 20.004 13.048 20.004 11.892V2.088C20.004 0.932001 18.985 -0.00799942 17.732 -0.00799942ZM1.82801 2.825L8.69201 8.947C9.42901 9.605 10.585 9.605 11.322 8.947L18.187 2.825V11.892C18.187 12.135 17.995 12.311 17.732 12.311H2.28201C2.01901 12.311 1.82801 12.135 1.82801 11.892V2.825ZM10.074 7.724C10.039 7.731 9.97501 7.731 9.94001 7.724L3.14901 1.669H16.865L10.074 7.724Z" fill="#32A961"/>
</svg>
