<svg width="21" height="21" viewBox="0 0 21 21" fill="none" xmlns="http://www.w3.org/2000/svg">
<path fill-rule="evenodd" clip-rule="evenodd" d="M6.09896 16.618H7.88996C7.88996 17.506 8.61196 18.226 9.50296 18.226C10.393 18.226 11.115 17.506 11.115 16.618H12.907C12.907 18.492 11.383 20.012 9.50296 20.012C7.62296 20.012 6.09896 18.492 6.09896 16.618ZM18.999 14.116V14.475C18.999 15.365 18.277 16.082 17.386 16.082H1.61996C0.728958 16.082 0.00695801 15.363 0.00695801 14.475V14.116C0.00695801 12.821 0.929958 11.741 2.15696 11.492V7.328C2.15696 3.283 5.44496 0.00500107 9.50296 0.00500107C13.56 0.00500107 16.849 3.283 16.849 7.328V11.491C18.077 11.74 18.999 12.82 18.999 14.116ZM17.207 14.116C17.207 13.622 16.807 13.224 16.308 13.224C15.616 13.224 15.057 12.662 15.057 11.976V7.328C15.057 4.27 12.571 1.791 9.50296 1.791C6.43496 1.791 3.94896 4.269 3.94896 7.328V11.976C3.94896 12.665 3.38596 13.224 2.69796 13.224C2.20096 13.224 1.79896 13.624 1.79896 14.116V14.296H17.207V14.116Z" fill="#32A961"/>
<circle cx="17" cy="4" r="4" fill="#FFB400"/>
</svg>
