<svg width="20" height="21" viewBox="0 0 20 21" fill="none" xmlns="http://www.w3.org/2000/svg">
<path d="M19.4126 18.9579H19.2251V8.01582H19.4126C19.7375 8.01582 20 7.75336 20 7.43154C20 7.10659 19.725 6.83475 19.4032 6.83475H12.9355V18.961H11.7638V1.3075H11.9888C12.3137 1.3075 12.5762 1.04503 12.5762 0.720083C12.5762 0.395134 12.3075 0.132675 11.9856 0.132675H0.58741C0.26246 0.132675 0 0.395134 0 0.716959C0 1.03878 0.26246 1.30437 0.58741 1.30437H0.82487V18.9579H0.58741C0.26246 18.9579 0 19.2203 0 19.5453C0 19.8702 0.26246 20.1296 0.58741 20.1296H19.4126C19.7375 20.1296 20 19.8671 20 19.5422C20 19.2172 19.7344 18.9579 19.4126 18.9579ZM4.44306 18.9579H3.27136V16.3958C3.27136 16.0708 3.53382 15.8084 3.85877 15.8084C4.18372 15.8084 4.44618 16.0708 4.44618 16.3958V18.9579H4.44306ZM4.44306 14.0711C4.44306 14.393 4.1806 14.6586 3.85565 14.6586C3.5307 14.6586 3.26824 14.3961 3.26824 14.0711V13.0869C3.26824 12.762 3.5307 12.4995 3.85565 12.4995C4.1806 12.4995 4.44306 12.762 4.44306 13.0869V14.0711ZM4.44931 10.731C4.44931 11.056 4.18685 11.3185 3.8619 11.3185C3.53695 11.3185 3.27449 11.056 3.27449 10.731V9.74679C3.27449 9.42184 3.53695 9.15938 3.8619 9.15938C4.18372 9.15938 4.44931 9.42184 4.44931 9.74679V10.731ZM4.44931 7.41592C4.44931 7.74087 4.18685 8.0002 3.8619 8.0002C3.53695 8.0002 3.27449 7.73773 3.27449 7.41592V6.43169C3.27449 6.10674 3.53695 5.84429 3.8619 5.84429C4.18372 5.84429 4.44931 6.10674 4.44931 6.43169V7.41592ZM4.45555 4.07894C4.45555 4.40389 4.1931 4.66635 3.86815 4.66635C3.5432 4.66635 3.28074 4.40389 3.28074 4.07894V3.09472C3.28074 2.76977 3.5432 2.50731 3.86815 2.50731C4.18997 2.50731 4.45555 2.76977 4.45555 3.09472V4.07894ZM6.86455 18.9579H5.69286V16.3958C5.69286 16.0708 5.95532 15.8084 6.28027 15.8084C6.60522 15.8084 6.86768 16.0708 6.86768 16.3958V18.9579H6.86455ZM6.86455 14.0711C6.86455 14.393 6.60209 14.6586 6.27714 14.6586C5.9522 14.6586 5.68974 14.3961 5.68974 14.0711V13.0869C5.68974 12.762 5.9522 12.4995 6.27714 12.4995C6.60209 12.4995 6.86455 12.762 6.86455 13.0869V14.0711ZM6.8708 10.731C6.8708 11.056 6.60834 11.3185 6.28339 11.3185C5.95844 11.3185 5.69599 11.056 5.69599 10.731V9.74679C5.69599 9.42184 5.95844 9.15938 6.28339 9.15938C6.60522 9.15938 6.8708 9.42184 6.8708 9.74679V10.731ZM6.8708 7.41592C6.8708 7.74087 6.60834 8.0002 6.28339 8.0002C5.95844 8.0002 5.69599 7.73773 5.69599 7.41592V6.43169C5.69599 6.10674 5.95844 5.84429 6.28339 5.84429C6.60522 5.84429 6.8708 6.10674 6.8708 6.43169V7.41592ZM6.87705 4.07894C6.87705 4.40389 6.61459 4.66635 6.28964 4.66635C5.96469 4.66635 5.70223 4.40389 5.70223 4.07894V3.09472C5.70223 2.76977 5.96469 2.50731 6.28964 2.50731C6.61147 2.50731 6.87705 2.76977 6.87705 3.09472V4.07894ZM9.286 18.9579H8.11436V16.3958C8.11436 16.0708 8.37682 15.8084 8.70177 15.8084C9.0267 15.8084 9.2892 16.0708 9.2892 16.3958V18.9579H9.286ZM9.286 14.0711C9.286 14.393 9.0236 14.6586 8.69864 14.6586C8.37369 14.6586 8.11123 14.3961 8.11123 14.0711V13.0869C8.11123 12.762 8.37369 12.4995 8.69864 12.4995C9.0236 12.4995 9.286 12.762 9.286 13.0869V14.0711ZM9.2923 10.731C9.2923 11.056 9.0298 11.3185 8.70489 11.3185C8.37994 11.3185 8.11748 11.056 8.11748 10.731V9.74679C8.11748 9.42184 8.37994 9.15938 8.70489 9.15938C9.0267 9.15938 9.2923 9.42184 9.2923 9.74679V10.731ZM9.2923 7.41592C9.2923 7.74087 9.0298 8.0002 8.70489 8.0002C8.37994 8.0002 8.11748 7.73773 8.11748 7.41592V6.43169C8.11748 6.10674 8.37994 5.84429 8.70489 5.84429C9.0267 5.84429 9.2923 6.10674 9.2923 6.43169V7.41592ZM9.2985 4.07894C9.2985 4.40389 9.0361 4.66635 8.71114 4.66635C8.38619 4.66635 8.12373 4.40389 8.12373 4.07894V3.09472C8.12373 2.76977 8.38619 2.50731 8.71114 2.50731C9.033 2.50731 9.2985 2.76977 9.2985 3.09472V4.07894ZM14.2759 13.0838C14.2759 12.7589 14.5384 12.4964 14.8633 12.4964C15.1883 12.4964 15.4507 12.7589 15.4507 13.0838V14.068C15.4507 14.3898 15.1883 14.6554 14.8633 14.6554C14.5384 14.6554 14.2759 14.393 14.2759 14.068V13.0838ZM15.4507 18.9579H14.279V16.6426C14.279 16.3177 14.5415 16.0552 14.8664 16.0552C15.1914 16.0552 15.4538 16.3177 15.4538 16.6426V18.9579H15.4507ZM15.4538 10.731C15.4538 11.056 15.1914 11.3185 14.8664 11.3185C14.5415 11.3185 14.279 11.056 14.279 10.731V9.74679C14.279 9.42184 14.5415 9.15938 14.8664 9.15938C15.1883 9.15938 15.4538 9.42184 15.4538 9.74679V10.731ZM16.6974 13.0838C16.6974 12.7589 16.9599 12.4964 17.2848 12.4964C17.6098 12.4964 17.8722 12.7589 17.8722 13.0838V14.068C17.8722 14.3898 17.6098 14.6554 17.2848 14.6554C16.9599 14.6554 16.6974 14.393 16.6974 14.068V13.0838ZM17.8722 18.9579H16.7005V16.6426C16.7005 16.3177 16.963 16.0552 17.2879 16.0552C17.6129 16.0552 17.8753 16.3177 17.8753 16.6426V18.9579H17.8722ZM17.8753 10.731C17.8753 11.056 17.6129 11.3185 17.2879 11.3185C16.963 11.3185 16.7005 11.056 16.7005 10.731V9.74679C16.7005 9.42184 16.963 9.15938 17.2879 9.15938C17.6097 9.15938 17.8753 9.42184 17.8753 9.74679V10.731Z" fill="#989CA6"/>
</svg>
