<svg width="18" height="19" viewBox="0 0 18 19" fill="none" xmlns="http://www.w3.org/2000/svg">
<path fill-rule="evenodd" clip-rule="evenodd" d="M13.147 12.84L17.731 17.434C18.088 17.791 18.089 18.369 17.729 18.73C17.37 19.09 16.784 19.084 16.434 18.734L11.849 14.14C8.96901 16.386 4.80401 16.182 2.15701 13.53C-0.708993 10.659 -0.708993 6.002 2.15701 3.13C5.02401 0.258002 9.67101 0.258002 12.538 3.13C15.185 5.782 15.388 9.955 13.147 12.84ZM11.24 12.23C13.39 10.077 13.39 6.584 11.24 4.43C9.09101 2.276 5.60501 2.276 3.45501 4.43C1.30501 6.584 1.30501 10.077 3.45501 12.23C5.60501 14.384 9.09101 14.384 11.24 12.23Z" fill="white"/>
</svg>
